# xmcd
#
# Track frame offsets: 
#        150
#        20060
#        43462
#
# Disc length: 816 seconds
#
# Revision: 0
# Processed by: cddbd v1.5.2PL0 Copyright (c) Steve Scherf et al.
# Submitted via: ExactAudioCopy v0.95b4
#
DISCID=26032e03
DTITLE=Minhinnett, Young and Moody - Minhinnett, Young and Moody
DYEAR=1992
DGENRE=Blues
TTITLE0=Svensk Blues
TTITLE1=Trying Not To Notice
TTITLE2=Save All Your Loving
EXTD=
EXTT0=
EXTT1=
EXTT2=
PLAYORDER=
